<svg width="900" height="520" viewBox="0 0 900 520" xmlns="http://www.w3.org/2000/svg" font-family="'Malgun Gothic','맑은 고딕',system-ui,sans-serif">
  <defs>
    <marker id="arw" viewBox="0 0 10 10" refX="8" refY="5" markerWidth="7" markerHeight="7" orient="auto-start-reverse">
      <path d="M2 1L8 5L2 9" fill="none" stroke="#8A7C68" stroke-width="1.6" stroke-linecap="round" stroke-linejoin="round"/>
    </marker>
    <marker id="arwT" viewBox="0 0 10 10" refX="8" refY="5" markerWidth="7" markerHeight="7" orient="auto-start-reverse">
      <path d="M2 1L8 5L2 9" fill="none" stroke="#3FA095" stroke-width="1.8" stroke-linecap="round" stroke-linejoin="round"/>
    </marker>
  </defs>

  <rect x="0" y="0" width="900" height="520" rx="18" fill="#FBF6EA"/>
  <text x="450" y="42" text-anchor="middle" font-size="22" font-weight="700" fill="#2E251B">알아 묵나? — 온디바이스 아키텍처</text>

  <!-- ① 학습·양자화 lane -->
  <text x="44" y="82" font-size="13" font-weight="700" fill="#C1502E">① 학습 · 양자화  (개발 PC)</text>

  <g>
    <rect x="44" y="94" width="180" height="60" rx="10" fill="#FFFFFF" stroke="#E4D8C0"/>
    <text x="134" y="120" text-anchor="middle" font-size="14" font-weight="700" fill="#2E251B">AI Hub 방언 데이터</text>
    <text x="134" y="140" text-anchor="middle" font-size="11.5" fill="#8A7C68">충청·강원·전라·경상</text>

    <rect x="253" y="94" width="180" height="60" rx="10" fill="#FFFFFF" stroke="#E4D8C0"/>
    <text x="343" y="120" text-anchor="middle" font-size="14" font-weight="700" fill="#2E251B">파인튜닝</text>
    <text x="343" y="140" text-anchor="middle" font-size="11.5" fill="#8A7C68">Whisper LoRA · KoBART</text>

    <rect x="462" y="94" width="180" height="60" rx="10" fill="#FFFFFF" stroke="#E4D8C0"/>
    <text x="552" y="120" text-anchor="middle" font-size="14" font-weight="700" fill="#2E251B">양자화</text>
    <text x="552" y="140" text-anchor="middle" font-size="11.5" fill="#8A7C68">q5 GGUF · int8 .pte</text>

    <rect x="671" y="94" width="185" height="60" rx="10" fill="#FFFFFF" stroke="#E4D8C0"/>
    <text x="763" y="120" text-anchor="middle" font-size="14" font-weight="700" fill="#2E251B">모델 ~490MB</text>
    <text x="763" y="140" text-anchor="middle" font-size="11.5" fill="#8A7C68">GitHub Releases 호스팅</text>

    <line x1="226" y1="124" x2="251" y2="124" stroke="#8A7C68" stroke-width="1.6" marker-end="url(#arw)"/>
    <line x1="435" y1="124" x2="460" y2="124" stroke="#8A7C68" stroke-width="1.6" marker-end="url(#arw)"/>
    <line x1="644" y1="124" x2="669" y2="124" stroke="#8A7C68" stroke-width="1.6" marker-end="url(#arw)"/>
  </g>

  <!-- 다운로드 연결 -->
  <line x1="763" y1="156" x2="763" y2="236" stroke="#3FA095" stroke-width="1.8" stroke-dasharray="5 4" marker-end="url(#arwT)"/>
  <text x="748" y="185" text-anchor="end" font-size="11.5" fill="#215249" font-weight="600">첫 실행 1회 다운로드</text>
  <text x="748" y="202" text-anchor="end" font-size="11.5" fill="#8A7C68">이후 완전 오프라인</text>

  <!-- ② 온디바이스 런타임 (phone) -->
  <rect x="44" y="238" width="812" height="252" rx="16" fill="#FFFDF8" stroke="#3FA095" stroke-width="1.5"/>
  <text x="66" y="266" font-size="13" font-weight="700" fill="#215249">② 온디바이스 런타임 · 휴대폰  (서버 없음)</text>

  <!-- runtime nodes -->
  <g>
    <rect x="66" y="300" width="128" height="66" rx="10" fill="#FFFFFF" stroke="#E4D8C0"/>
    <text x="130" y="330" text-anchor="middle" font-size="14" font-weight="700" fill="#2E251B">사투리 음성</text>
    <text x="130" y="349" text-anchor="middle" font-size="11.5" fill="#8A7C68">마이크 녹음</text>

    <rect x="224" y="300" width="128" height="66" rx="10" fill="#FFFFFF" stroke="#E4D8C0"/>
    <text x="288" y="330" text-anchor="middle" font-size="14" font-weight="700" fill="#2E251B">녹음</text>
    <text x="288" y="349" text-anchor="middle" font-size="11.5" fill="#8A7C68">16kHz PCM WAV</text>

    <rect x="382" y="300" width="128" height="66" rx="10" fill="#E4EDE9" stroke="#3FA095"/>
    <text x="446" y="330" text-anchor="middle" font-size="14" font-weight="700" fill="#215249">① STT</text>
    <text x="446" y="349" text-anchor="middle" font-size="11.5" fill="#215249">whisper.rn · q5</text>

    <rect x="540" y="300" width="128" height="66" rx="10" fill="#E4EDE9" stroke="#3FA095"/>
    <text x="604" y="330" text-anchor="middle" font-size="14" font-weight="700" fill="#215249">② 변환</text>
    <text x="604" y="349" text-anchor="middle" font-size="11.5" fill="#215249">ExecuTorch · int8</text>

    <rect x="698" y="300" width="128" height="66" rx="10" fill="#FFFFFF" stroke="#E4D8C0"/>
    <text x="762" y="330" text-anchor="middle" font-size="14" font-weight="700" fill="#2E251B">표준어</text>
    <text x="762" y="349" text-anchor="middle" font-size="11.5" fill="#8A7C68">화면 표시</text>

    <line x1="196" y1="333" x2="222" y2="333" stroke="#8A7C68" stroke-width="1.6" marker-end="url(#arw)"/>
    <line x1="354" y1="333" x2="380" y2="333" stroke="#8A7C68" stroke-width="1.6" marker-end="url(#arw)"/>
    <line x1="512" y1="333" x2="538" y2="333" stroke="#8A7C68" stroke-width="1.6" marker-end="url(#arw)"/>
    <text x="525" y="291" text-anchor="middle" font-size="10.5" fill="#8A7C68">사투리</text>
    <line x1="670" y1="333" x2="696" y2="333" stroke="#8A7C68" stroke-width="1.6" marker-end="url(#arw)"/>
    <text x="683" y="291" text-anchor="middle" font-size="10.5" fill="#8A7C68">표준어</text>
  </g>

  <!-- 예시 -->
  <text x="450" y="410" text-anchor="middle" font-size="13" fill="#2E251B">예) "이거 억수로 맛있다" &#8594; "이거 <tspan font-weight="700" fill="#215249">대단히</tspan> 맛있다"  ·  처리 7~8초</text>

  <!-- 강조 배너 -->
  <rect x="200" y="436" width="500" height="34" rx="17" fill="#E4EDE9"/>
  <text x="450" y="458" text-anchor="middle" font-size="12.5" font-weight="700" fill="#215249">완전 오프라인 · 서버 비용 0 · 음성이 기기를 벗어나지 않음(프라이버시)</text>
</svg>
